<?xml version="1.0" encoding="utf-8"?>
<svg xmlns="http://www.w3.org/2000/svg" viewBox="0 152.394 500 121.619" xmlns:bx="https://boxy-svg.com" width="500px" height="121.619px"><g transform="matrix(1, 0, 0, 1, -393.672974, 59.143257)" style="pointer-events: none;"><title>Awais Swagger Logo Full</title><g><path id="Path_2938" data-name="Path 2938" class="cls-3" d="M 449.031 191.413 C 412.357 191.413 389.436 151.711 407.773 119.95 C 426.111 88.188 471.954 88.188 490.292 119.95 C 494.473 127.192 496.674 135.408 496.674 143.771 C 496.674 170.082 475.343 191.413 449.031 191.413 Z" style="fill: rgb(133, 234, 45); stroke-width: 1;"/><path id="Path_2940" data-name="Path 2940" class="cls-4" d="M 430.503 127.598 C 430.349 129.31 430.561 131.08 430.446 132.811 C 430.32 134.542 430.089 136.264 429.753 137.967 C 429.192 140.367 427.722 142.456 425.653 143.796 C 429.732 146.45 430.193 150.567 430.463 154.742 C 430.598 156.992 430.54 159.262 430.771 161.494 C 430.944 163.225 431.617 163.668 433.407 163.725 C 434.137 163.745 434.887 163.725 435.734 163.725 L 435.734 169.074 C 430.444 169.974 426.077 168.474 425 163.995 C 424.646 162.349 424.427 160.676 424.346 158.995 C 424.229 157.206 424.422 155.417 424.288 153.628 C 423.902 148.722 423.268 147.068 418.575 146.837 L 418.575 140.737 C 418.914 140.659 419.258 140.602 419.603 140.564 C 422.18 140.429 423.277 139.64 423.834 137.101 C 424.102 135.671 424.263 134.224 424.315 132.772 C 424.371 129.961 424.572 127.155 424.915 124.366 C 425.588 120.384 428.051 118.46 432.149 118.229 C 433.303 118.172 434.476 118.229 435.804 118.229 L 435.804 123.693 C 435.246 123.731 434.765 123.808 434.265 123.808 C 430.929 123.693 430.755 124.828 430.503 127.598 Z M 436.909 140.256 L 436.832 140.256 C 434.132 140.091 432.265 142.912 433.473 145.333 C 434.047 146.483 435.202 147.228 436.486 147.277 L 436.717 147.277 C 438.624 147.387 440.26 145.932 440.372 144.026 L 440.372 143.834 C 440.403 141.89 438.854 140.289 436.911 140.256 L 436.909 140.256 Z M 448.971 140.256 C 447.113 140.194 445.556 141.648 445.489 143.507 C 445.486 143.616 445.493 143.725 445.509 143.834 C 445.416 145.827 447.099 147.447 449.087 147.277 C 451.083 147.395 452.715 145.709 452.53 143.719 C 452.63 141.729 450.96 140.103 448.973 140.256 L 448.971 140.256 Z M 461.322 140.256 C 459.356 140.22 457.727 141.772 457.667 143.738 C 457.662 145.693 459.248 147.28 461.203 147.277 L 461.242 147.277 C 463.011 147.586 464.801 145.877 464.916 143.815 C 464.91 141.836 463.295 140.239 461.316 140.256 L 461.322 140.256 Z M 478.27 140.544 C 476.038 140.444 474.922 139.698 474.37 137.582 C 474.024 136.227 473.812 134.842 473.735 133.446 C 473.581 130.868 473.6 128.271 473.427 125.693 C 473.027 119.576 468.599 117.441 462.173 118.498 L 462.173 123.808 C 463.192 123.808 463.981 123.808 464.773 123.827 C 466.139 123.846 467.173 124.366 467.312 125.886 C 467.447 127.271 467.447 128.675 467.582 130.079 C 467.851 132.869 468.004 135.697 468.482 138.448 C 469.034 140.677 470.443 142.599 472.403 143.796 C 469.003 146.085 467.997 149.355 467.825 153.03 C 467.725 155.55 467.671 158.089 467.536 160.63 C 467.421 162.938 466.613 163.688 464.285 163.746 C 463.631 163.765 462.996 163.823 462.266 163.861 L 462.266 169.306 C 463.631 169.306 464.882 169.383 466.132 169.306 C 470.018 169.075 472.365 167.189 473.132 163.419 C 473.457 161.341 473.648 159.245 473.703 157.144 C 473.838 155.221 473.819 153.278 474.011 151.373 C 474.3 148.391 475.666 147.16 478.647 146.973 C 478.929 146.938 479.207 146.873 479.475 146.781 L 479.475 140.681 C 478.975 140.623 478.632 140.566 478.267 140.546 L 478.27 140.544 Z" style="fill: rgb(23, 54, 71); stroke-width: 1;"/></g><path d="M 550.91 162.88 L 545.46 148.83 L 527.72 148.83 L 522.3 162.88 L 517.09 162.88 L 534.41 118.44 L 539.04 118.44 L 556.24 162.88 Z M 543.91 144.26 L 538.74 130.3 Q 538.56 129.76 538.15 128.52 Q 537.74 127.28 537.31 125.94 Q 536.89 124.61 536.62 123.79 Q 536.32 125.04 535.97 126.26 Q 535.62 127.49 535.29 128.53 Q 534.95 129.58 534.71 130.3 L 529.44 144.26 Z M 587.19 162.82 L 581.29 143.5 Q 580.89 142.26 580.55 141.07 Q 580.2 139.87 579.91 138.77 Q 579.62 137.66 579.4 136.71 Q 579.17 135.75 579.02 135.06 L 578.81 135.06 Q 578.68 135.75 578.47 136.71 Q 578.26 137.66 577.97 138.78 Q 577.69 139.9 577.35 141.13 Q 577.02 142.35 576.6 143.59 L 570.42 162.82 L 564.76 162.82 L 555.62 129.64 L 560.82 129.64 L 565.61 147.95 Q 566.09 149.77 566.53 151.54 Q 566.97 153.31 567.29 154.87 Q 567.6 156.43 567.76 157.58 L 568 157.58 Q 568.18 156.82 568.41 155.76 Q 568.63 154.7 568.92 153.51 Q 569.21 152.31 569.54 151.12 Q 569.87 149.92 570.21 148.86 L 576.32 129.64 L 581.74 129.64 L 587.65 148.83 Q 588.1 150.28 588.54 151.86 Q 588.98 153.43 589.34 154.9 Q 589.7 156.37 589.86 157.52 L 590.1 157.52 Q 590.22 156.49 590.55 154.98 Q 590.88 153.46 591.32 151.65 Q 591.76 149.83 592.25 147.95 L 597.09 129.64 L 602.21 129.64 L 593.03 162.82 Z M 619.24 129.15 Q 625.17 129.15 628.05 131.82 Q 630.93 134.48 630.93 140.32 L 630.93 162.88 L 627.26 162.88 L 626.29 157.97 L 626.05 157.97 Q 624.66 159.79 623.15 161.02 Q 621.63 162.24 619.65 162.86 Q 617.67 163.48 614.79 163.48 Q 611.76 163.48 609.42 162.42 Q 607.07 161.36 605.72 159.21 Q 604.38 157.07 604.38 153.77 Q 604.38 148.8 608.31 146.14 Q 612.25 143.47 620.3 143.23 L 626.02 142.99 L 626.02 140.96 Q 626.02 136.66 624.18 134.94 Q 622.33 133.21 618.97 133.21 Q 616.36 133.21 614 133.97 Q 611.64 134.72 609.52 135.75 L 607.98 131.94 Q 610.22 130.79 613.13 129.97 Q 616.03 129.15 619.24 129.15 Z M 625.96 146.53 L 620.91 146.74 Q 614.7 146.98 612.16 148.77 Q 609.61 150.56 609.61 153.83 Q 609.61 156.67 611.34 158.03 Q 613.06 159.4 615.91 159.4 Q 620.33 159.4 623.15 156.94 Q 625.96 154.49 625.96 149.59 Z M 644.9 129.7 L 644.9 162.88 L 639.88 162.88 L 639.88 129.7 Z M 642.45 117.29 Q 643.69 117.29 644.58 118.09 Q 645.48 118.89 645.48 120.59 Q 645.48 122.25 644.58 123.07 Q 643.69 123.89 642.45 123.89 Q 641.15 123.89 640.28 123.07 Q 639.42 122.25 639.42 120.59 Q 639.42 118.89 640.28 118.09 Q 641.15 117.29 642.45 117.29 Z M 675.59 153.8 Q 675.59 156.97 674 159.14 Q 672.41 161.3 669.46 162.39 Q 666.51 163.48 662.42 163.48 Q 658.94 163.48 656.4 162.94 Q 653.85 162.39 651.95 161.39 L 651.95 156.76 Q 653.97 157.76 656.79 158.58 Q 659.61 159.4 662.54 159.4 Q 666.84 159.4 668.78 158 Q 670.72 156.61 670.72 154.22 Q 670.72 152.86 669.94 151.81 Q 669.17 150.77 667.36 149.78 Q 665.54 148.8 662.33 147.62 Q 659.15 146.41 656.84 145.21 Q 654.52 144.02 653.26 142.29 Q 652.01 140.57 652.01 137.81 Q 652.01 133.6 655.41 131.35 Q 658.82 129.09 664.36 129.09 Q 667.36 129.09 669.97 129.68 Q 672.59 130.27 674.86 131.27 L 673.17 135.3 Q 671.11 134.42 668.78 133.82 Q 666.45 133.21 664.03 133.21 Q 660.54 133.21 658.68 134.36 Q 656.82 135.51 656.82 137.51 Q 656.82 139.05 657.68 140.05 Q 658.55 141.05 660.45 141.93 Q 662.36 142.81 665.48 143.99 Q 668.6 145.14 670.87 146.36 Q 673.14 147.59 674.36 149.33 Q 675.59 151.07 675.59 153.8 Z M 697.74 162.88 L 697.74 118.62 L 702.88 118.62 L 702.88 162.88 Z M 727.97 129.09 Q 728.97 129.09 730.06 129.2 Q 731.15 129.3 732 129.49 L 731.36 134.15 Q 730.54 133.94 729.54 133.82 Q 728.54 133.69 727.67 133.69 Q 725.67 133.69 723.9 134.5 Q 722.13 135.3 720.79 136.8 Q 719.46 138.3 718.71 140.4 Q 717.95 142.5 717.95 145.08 L 717.95 162.88 L 712.89 162.88 L 712.89 129.7 L 717.07 129.7 L 717.62 135.81 L 717.83 135.81 Q 718.86 133.97 720.31 132.44 Q 721.76 130.91 723.69 130 Q 725.61 129.09 727.97 129.09 Z M 758.29 153.8 Q 758.29 156.97 756.71 159.14 Q 755.12 161.3 752.16 162.39 Q 749.21 163.48 745.13 163.48 Q 741.64 163.48 739.1 162.94 Q 736.56 162.39 734.65 161.39 L 734.65 156.76 Q 736.68 157.76 739.49 158.58 Q 742.31 159.4 745.25 159.4 Q 749.55 159.4 751.48 158 Q 753.42 156.61 753.42 154.22 Q 753.42 152.86 752.65 151.81 Q 751.88 150.77 750.06 149.78 Q 748.24 148.8 745.03 147.62 Q 741.86 146.41 739.54 145.21 Q 737.22 144.02 735.97 142.29 Q 734.71 140.57 734.71 137.81 Q 734.71 133.6 738.12 131.35 Q 741.52 129.09 747.06 129.09 Q 750.06 129.09 752.68 129.68 Q 755.3 130.27 757.57 131.27 L 755.87 135.3 Q 753.81 134.42 751.48 133.82 Q 749.15 133.21 746.73 133.21 Q 743.25 133.21 741.39 134.36 Q 739.52 135.51 739.52 137.51 Q 739.52 139.05 740.39 140.05 Q 741.25 141.05 743.16 141.93 Q 745.06 142.81 748.18 143.99 Q 751.3 145.14 753.57 146.36 Q 755.84 147.59 757.07 149.33 Q 758.29 151.07 758.29 153.8 Z M 770 115.77 L 770 129.85 Q 770 131.06 769.94 132.29 Q 769.88 133.51 769.72 134.54 L 770.06 134.54 Q 771.09 132.79 772.68 131.59 Q 774.27 130.39 776.29 129.77 Q 778.32 129.15 780.59 129.15 Q 784.59 129.15 787.27 130.42 Q 789.95 131.7 791.29 134.36 Q 792.64 137.02 792.64 141.26 L 792.64 162.88 L 787.68 162.88 L 787.68 141.6 Q 787.68 137.45 785.78 135.39 Q 783.89 133.33 779.99 133.33 Q 776.29 133.33 774.1 134.74 Q 771.9 136.15 770.95 138.87 Q 770 141.6 770 145.53 L 770 162.88 L 764.97 162.88 L 764.97 115.77 Z M 814.01 129.15 Q 819.94 129.15 822.82 131.82 Q 825.69 134.48 825.69 140.32 L 825.69 162.88 L 822.03 162.88 L 821.06 157.97 L 820.82 157.97 Q 819.43 159.79 817.91 161.02 Q 816.4 162.24 814.42 162.86 Q 812.43 163.48 809.56 163.48 Q 806.53 163.48 804.19 162.42 Q 801.84 161.36 800.49 159.21 Q 799.14 157.07 799.14 153.77 Q 799.14 148.8 803.08 146.14 Q 807.02 143.47 815.07 143.23 L 820.79 142.99 L 820.79 140.96 Q 820.79 136.66 818.94 134.94 Q 817.1 133.21 813.74 133.21 Q 811.13 133.21 808.77 133.97 Q 806.41 134.72 804.29 135.75 L 802.75 131.94 Q 804.99 130.79 807.89 129.97 Q 810.8 129.15 814.01 129.15 Z M 820.73 146.53 L 815.67 146.74 Q 809.47 146.98 806.93 148.77 Q 804.38 150.56 804.38 153.83 Q 804.38 156.67 806.11 158.03 Q 807.83 159.4 810.68 159.4 Q 815.1 159.4 817.91 156.94 Q 820.73 154.49 820.73 149.59 Z M 846.45 163.48 Q 840.15 163.48 836.48 159.18 Q 832.8 154.89 832.8 146.41 Q 832.8 137.84 836.55 133.47 Q 840.31 129.09 846.54 129.09 Q 849.18 129.09 851.14 129.79 Q 853.11 130.49 854.53 131.65 Q 855.96 132.82 856.93 134.3 L 857.29 134.3 Q 857.17 133.36 857.05 131.73 Q 856.93 130.09 856.93 129.06 L 856.93 115.77 L 861.95 115.77 L 861.95 162.88 L 857.89 162.88 L 857.14 158.16 L 856.93 158.16 Q 855.99 159.64 854.55 160.85 Q 853.11 162.06 851.13 162.77 Q 849.15 163.48 846.45 163.48 Z M 847.24 159.31 Q 852.57 159.31 854.78 156.28 Q 856.99 153.25 856.99 147.29 L 856.99 146.38 Q 856.99 140.05 854.88 136.66 Q 852.78 133.27 847.24 133.27 Q 842.61 133.27 840.31 136.83 Q 838 140.38 838 146.53 Q 838 152.65 840.29 155.98 Q 842.58 159.31 847.24 159.31 Z" style="fill: rgb(255, 255, 255); text-wrap-mode: nowrap;"/><path d="M 531.08 197.65 L 529.54 193.67 L 524.61 193.67 L 523.07 197.65 L 521.8 197.65 L 526.55 185.46 L 527.68 185.46 L 532.37 197.65 Z M 529.16 192.55 L 527.67 188.52 Q 527.61 188.36 527.5 188.04 Q 527.39 187.72 527.28 187.37 Q 527.17 187.02 527.09 186.78 Q 527 187.12 526.91 187.44 Q 526.81 187.76 526.72 188.04 Q 526.63 188.32 526.56 188.53 L 525.03 192.55 Z M 540.27 195.19 Q 540.27 196.05 539.84 196.63 Q 539.41 197.22 538.61 197.52 Q 537.82 197.82 536.7 197.82 Q 535.74 197.82 535.03 197.66 Q 534.32 197.51 533.81 197.24 L 533.81 196.1 Q 534.39 196.39 535.15 196.6 Q 535.92 196.81 536.72 196.81 Q 537.97 196.81 538.52 196.4 Q 539.07 196 539.07 195.29 Q 539.07 194.87 538.83 194.57 Q 538.6 194.26 538.08 193.99 Q 537.56 193.72 536.7 193.42 Q 535.85 193.1 535.21 192.79 Q 534.57 192.48 534.22 192.01 Q 533.87 191.54 533.87 190.77 Q 533.87 189.63 534.79 189.02 Q 535.7 188.4 537.21 188.4 Q 538.02 188.4 538.74 188.56 Q 539.45 188.73 540.06 188.99 L 539.64 189.98 Q 539.1 189.74 538.45 189.58 Q 537.8 189.42 537.13 189.42 Q 536.13 189.42 535.59 189.75 Q 535.04 190.09 535.04 190.7 Q 535.04 191.17 535.3 191.46 Q 535.56 191.75 536.09 191.98 Q 536.62 192.21 537.45 192.52 Q 538.29 192.83 538.92 193.15 Q 539.56 193.47 539.91 193.95 Q 540.27 194.43 540.27 195.19 Z M 547.3 188.4 Q 549.01 188.4 550.01 189.57 Q 551.01 190.74 551.01 193.08 Q 551.01 194.62 550.54 195.67 Q 550.08 196.73 549.23 197.27 Q 548.39 197.82 547.24 197.82 Q 546.49 197.82 545.93 197.61 Q 545.36 197.4 544.97 197.05 Q 544.57 196.7 544.33 196.28 L 544.24 196.28 Q 544.27 196.65 544.3 197.12 Q 544.33 197.59 544.33 197.97 L 544.33 201.69 L 543.1 201.69 L 543.1 188.58 L 544.11 188.58 L 544.27 190.05 L 544.33 190.05 Q 544.58 189.61 544.97 189.23 Q 545.36 188.85 545.93 188.63 Q 546.51 188.4 547.3 188.4 Z M 547.1 189.45 Q 546.12 189.45 545.52 189.83 Q 544.91 190.22 544.63 190.98 Q 544.35 191.75 544.33 192.88 L 544.33 193.11 Q 544.33 194.31 544.61 195.13 Q 544.88 195.95 545.49 196.37 Q 546.09 196.79 547.08 196.79 Q 547.96 196.79 548.55 196.33 Q 549.15 195.87 549.45 195.03 Q 549.74 194.19 549.74 193.06 Q 549.74 191.37 549.09 190.41 Q 548.43 189.45 547.1 189.45 Z M 555.24 188.58 L 555.24 197.65 L 554.01 197.65 L 554.01 188.58 Z M 554.64 185.19 Q 554.97 185.19 555.19 185.4 Q 555.4 185.61 555.4 186.03 Q 555.4 186.44 555.19 186.66 Q 554.97 186.88 554.64 186.88 Q 554.3 186.88 554.09 186.66 Q 553.88 186.44 553.88 186.03 Q 553.88 185.61 554.09 185.4 Q 554.3 185.19 554.64 185.19 Z M 562.75 188.41 Q 563.05 188.41 563.35 188.44 Q 563.66 188.48 563.9 188.54 L 563.74 189.66 Q 563.5 189.6 563.22 189.57 Q 562.94 189.53 562.68 189.53 Q 562.1 189.53 561.61 189.76 Q 561.12 189.99 560.76 190.41 Q 560.4 190.83 560.2 191.42 Q 560 192.01 560 192.74 L 560 197.65 L 558.78 197.65 L 558.78 188.58 L 559.8 188.58 L 559.93 190.25 L 559.98 190.25 Q 560.24 189.75 560.63 189.33 Q 561.03 188.91 561.56 188.66 Q 562.09 188.41 562.75 188.41 Z M 567.45 188.58 L 567.45 197.65 L 566.22 197.65 L 566.22 188.58 Z M 566.85 185.19 Q 567.18 185.19 567.4 185.4 Q 567.62 185.61 567.62 186.03 Q 567.62 186.44 567.4 186.66 Q 567.18 186.88 566.85 186.88 Q 566.51 186.88 566.3 186.66 Q 566.09 186.44 566.09 186.03 Q 566.09 185.61 566.3 185.4 Q 566.51 185.19 566.85 185.19 Z M 575.2 188.4 Q 576.78 188.4 577.61 189.2 Q 578.43 190 578.43 191.73 L 578.43 197.65 L 577.23 197.65 L 577.23 191.81 Q 577.23 190.61 576.68 190.03 Q 576.13 189.45 575.04 189.45 Q 573.53 189.45 572.87 190.3 Q 572.21 191.16 572.21 192.83 L 572.21 197.65 L 570.98 197.65 L 570.98 188.58 L 571.97 188.58 L 572.15 189.98 L 572.22 189.98 Q 572.5 189.49 572.94 189.14 Q 573.38 188.79 573.95 188.6 Q 574.52 188.4 575.2 188.4 Z M 584.38 201.73 Q 582.62 201.73 581.65 201.07 Q 580.69 200.41 580.69 199.21 Q 580.69 198.34 581.24 197.72 Q 581.79 197.09 582.76 196.91 Q 582.4 196.75 582.15 196.42 Q 581.89 196.09 581.89 195.66 Q 581.89 195.18 582.18 194.79 Q 582.46 194.4 583.04 194.06 Q 582.3 193.77 581.86 193.08 Q 581.41 192.4 581.41 191.46 Q 581.41 190.5 581.81 189.81 Q 582.22 189.13 582.97 188.76 Q 583.73 188.39 584.79 188.39 Q 585.05 188.39 585.29 188.42 Q 585.54 188.44 585.76 188.47 Q 585.98 188.51 586.14 188.56 L 589.21 188.56 L 589.21 189.37 L 587.47 189.55 Q 587.75 189.91 587.93 190.38 Q 588.1 190.85 588.1 191.41 Q 588.1 192.76 587.2 193.56 Q 586.3 194.36 584.72 194.36 Q 584.33 194.36 583.93 194.29 Q 583.5 194.54 583.27 194.82 Q 583.04 195.1 583.04 195.48 Q 583.04 195.76 583.2 195.92 Q 583.36 196.08 583.67 196.16 Q 583.98 196.24 584.42 196.24 L 586.02 196.24 Q 587.5 196.24 588.29 196.85 Q 589.08 197.47 589.08 198.65 Q 589.08 200.14 587.87 200.94 Q 586.66 201.73 584.38 201.73 Z M 584.43 200.76 Q 585.58 200.76 586.33 200.53 Q 587.09 200.29 587.47 199.84 Q 587.84 199.39 587.84 198.76 Q 587.84 198.2 587.58 197.9 Q 587.32 197.61 586.83 197.5 Q 586.33 197.39 585.63 197.39 L 584.07 197.39 Q 583.43 197.39 582.94 197.59 Q 582.45 197.78 582.18 198.17 Q 581.92 198.55 581.92 199.15 Q 581.92 199.94 582.57 200.35 Q 583.22 200.76 584.43 200.76 Z M 584.77 193.45 Q 585.79 193.45 586.31 192.93 Q 586.84 192.41 586.84 191.42 Q 586.84 190.37 586.3 189.84 Q 585.77 189.32 584.75 189.32 Q 583.76 189.32 583.22 189.87 Q 582.68 190.42 582.68 191.46 Q 582.68 192.41 583.22 192.93 Q 583.75 193.45 584.77 193.45 Z" style="fill: rgb(255, 255, 255); text-wrap-mode: nowrap;"/><path d="M 606.18 197.92 Q 605.38 197.92 604.37 197.83 Q 603.36 197.74 602.36 197.6 Q 601.36 197.47 600.61 197.37 L 600.81 195.57 Q 601.56 195.64 602.52 195.74 Q 603.48 195.84 604.43 195.92 Q 605.38 195.99 606.06 195.99 Q 607.23 195.99 608.01 195.64 Q 608.78 195.29 609.17 194.58 Q 609.56 193.87 609.56 192.74 Q 609.56 191.84 609.21 191.29 Q 608.86 190.74 608.05 190.43 Q 607.23 190.12 605.86 189.84 Q 604.48 189.57 603.47 189.22 Q 602.46 188.87 601.78 188.32 Q 601.11 187.77 600.78 186.94 Q 600.46 186.12 600.46 184.89 Q 600.46 183.17 601.16 182.13 Q 601.86 181.09 603.13 180.62 Q 604.41 180.14 606.11 180.14 Q 606.86 180.14 607.83 180.23 Q 608.81 180.32 609.76 180.43 Q 610.71 180.54 611.38 180.67 L 611.23 182.49 Q 610.48 182.39 609.53 182.3 Q 608.58 182.22 607.7 182.14 Q 606.81 182.07 606.26 182.07 Q 605.11 182.07 604.31 182.35 Q 603.51 182.64 603.1 183.23 Q 602.68 183.82 602.68 184.72 Q 602.68 185.79 603.08 186.34 Q 603.48 186.89 604.38 187.2 Q 605.28 187.52 606.73 187.84 Q 608.06 188.17 609.01 188.52 Q 609.96 188.87 610.58 189.38 Q 611.21 189.89 611.5 190.67 Q 611.78 191.44 611.78 192.57 Q 611.78 194.49 611.1 195.67 Q 610.41 196.84 609.16 197.38 Q 607.91 197.92 606.18 197.92 Z M 624.35 197.94 Q 621.65 197.94 620.15 196.95 Q 618.65 195.97 618.05 194 Q 617.45 192.04 617.45 189.14 Q 617.45 186.27 618.06 184.27 Q 618.67 182.27 620.17 181.22 Q 621.67 180.17 624.35 180.17 Q 627.05 180.17 628.55 181.2 Q 630.05 182.24 630.66 184.25 Q 631.27 186.27 631.27 189.14 Q 631.27 192.12 630.67 194.07 Q 630.07 196.02 628.56 196.98 Q 627.05 197.94 624.35 197.94 Z M 624.35 196.02 Q 626.27 196.02 627.27 195.28 Q 628.27 194.54 628.64 193.02 Q 629 191.49 629 189.14 Q 629 186.89 628.62 185.32 Q 628.25 183.74 627.25 182.92 Q 626.25 182.09 624.35 182.09 Q 622.45 182.09 621.46 182.92 Q 620.47 183.74 620.1 185.3 Q 619.72 186.87 619.72 189.14 Q 619.72 191.42 620.09 192.94 Q 620.45 194.47 621.44 195.24 Q 622.42 196.02 624.35 196.02 Z M 637.84 197.69 L 637.84 180.44 L 648.31 180.44 L 648.31 182.37 L 640.04 182.37 L 640.04 188.82 L 646.99 188.82 L 646.99 190.74 L 640.04 190.74 L 640.04 197.69 Z M 657.65 197.69 L 657.65 182.39 L 652.48 182.39 L 652.48 180.44 L 664.98 180.44 L 664.98 182.39 L 659.85 182.39 L 659.85 197.69 Z M 672.62 197.69 L 669.22 180.44 L 671.49 180.44 L 674.27 195.72 L 674.97 195.72 L 678.34 180.57 L 680.89 180.57 L 684.27 195.72 L 684.97 195.72 L 687.74 180.44 L 690.02 180.44 L 686.59 197.69 L 682.74 197.69 L 679.44 182.42 L 679.77 182.42 L 676.47 197.69 Z M 693.74 197.69 L 698.39 180.44 L 702.97 180.44 L 707.62 197.69 L 705.42 197.69 L 704.22 193.44 L 697.12 193.44 L 695.92 197.69 Z M 697.54 191.54 L 703.79 191.54 L 701.29 182.29 L 700.04 182.29 Z M 713.38 197.69 L 713.38 180.44 L 719.83 180.44 Q 721.7 180.44 722.95 180.99 Q 724.2 181.54 724.84 182.72 Q 725.48 183.89 725.48 185.74 Q 725.48 187.64 724.73 188.93 Q 723.98 190.22 722.4 190.77 L 725.6 197.69 L 723.2 197.69 L 720.25 191.24 L 715.58 191.24 L 715.58 197.69 Z M 715.58 189.34 L 719.88 189.34 Q 721.1 189.34 721.84 188.88 Q 722.58 188.42 722.89 187.6 Q 723.2 186.79 723.2 185.77 Q 723.2 184.04 722.38 183.19 Q 721.55 182.34 719.83 182.34 L 715.58 182.34 Z M 731.98 197.69 L 731.98 180.44 L 742.65 180.44 L 742.65 182.37 L 734.18 182.37 L 734.18 187.99 L 741.15 187.99 L 741.15 189.89 L 734.18 189.89 L 734.18 195.77 L 742.65 195.77 L 742.65 197.69 Z M 757.68 197.69 L 757.68 180.44 L 768.36 180.44 L 768.36 182.37 L 759.88 182.37 L 759.88 187.99 L 766.86 187.99 L 766.86 189.89 L 759.88 189.89 L 759.88 195.77 L 768.36 195.77 L 768.36 197.69 Z M 774.7 197.69 L 774.7 180.44 L 778.53 180.44 L 784.9 195.47 L 785.38 195.47 L 785.38 180.44 L 787.58 180.44 L 787.58 197.69 L 783.83 197.69 L 777.38 182.64 L 776.9 182.64 L 776.9 197.69 Z M 800.94 197.94 Q 798.94 197.94 797.63 197.35 Q 796.31 196.77 795.55 195.64 Q 794.79 194.52 794.48 192.87 Q 794.16 191.22 794.16 189.09 Q 794.16 186.92 794.48 185.25 Q 794.79 183.59 795.56 182.45 Q 796.34 181.32 797.64 180.74 Q 798.94 180.17 800.89 180.17 Q 801.89 180.17 802.95 180.27 Q 804.01 180.37 804.99 180.53 Q 805.96 180.69 806.61 180.84 L 806.54 182.64 Q 805.89 182.52 804.93 182.4 Q 803.96 182.29 802.98 182.22 Q 801.99 182.14 801.16 182.14 Q 799.71 182.14 798.79 182.55 Q 797.86 182.97 797.35 183.83 Q 796.84 184.69 796.64 185.99 Q 796.44 187.29 796.44 189.09 Q 796.44 191.44 796.8 192.98 Q 797.16 194.52 798.18 195.27 Q 799.19 196.02 801.11 196.02 Q 801.66 196.02 802.28 195.97 Q 802.89 195.92 803.49 195.84 Q 804.09 195.77 804.46 195.69 L 804.46 190.69 L 801.76 190.69 L 801.76 188.79 L 806.61 188.79 L 806.61 197.34 Q 806.19 197.42 805.48 197.52 Q 804.76 197.62 803.95 197.72 Q 803.14 197.82 802.35 197.88 Q 801.56 197.94 800.94 197.94 Z M 813.44 197.69 L 813.44 180.44 L 815.64 180.44 L 815.64 197.69 Z M 822.89 197.69 L 822.89 180.44 L 826.72 180.44 L 833.09 195.47 L 833.57 195.47 L 833.57 180.44 L 835.77 180.44 L 835.77 197.69 L 832.02 197.69 L 825.57 182.64 L 825.09 182.64 L 825.09 197.69 Z M 843.03 197.69 L 843.03 180.44 L 853.71 180.44 L 853.71 182.37 L 845.23 182.37 L 845.23 187.99 L 852.21 187.99 L 852.21 189.89 L 845.23 189.89 L 845.23 195.77 L 853.71 195.77 L 853.71 197.69 Z M 860.05 197.69 L 860.05 180.44 L 870.72 180.44 L 870.72 182.37 L 862.25 182.37 L 862.25 187.99 L 869.22 187.99 L 869.22 189.89 L 862.25 189.89 L 862.25 195.77 L 870.72 195.77 L 870.72 197.69 Z M 877.07 197.69 L 877.07 180.44 L 883.52 180.44 Q 885.39 180.44 886.64 180.99 Q 887.89 181.54 888.53 182.72 Q 889.17 183.89 889.17 185.74 Q 889.17 187.64 888.42 188.93 Q 887.67 190.22 886.09 190.77 L 889.29 197.69 L 886.89 197.69 L 883.94 191.24 L 879.27 191.24 L 879.27 197.69 Z M 879.27 189.34 L 883.57 189.34 Q 884.79 189.34 885.53 188.88 Q 886.27 188.42 886.58 187.6 Q 886.89 186.79 886.89 185.77 Q 886.89 184.04 886.07 183.19 Q 885.24 182.34 883.52 182.34 L 879.27 182.34 Z" style="fill: rgb(255, 255, 255); text-wrap-mode: nowrap;"/><path id="path-32" data-name="Path 2936" class="cls-2" d="M 878.766 162.507 L 878.066 162.507 L 878.066 158.825 L 876.806 158.825 L 876.806 158.225 L 880.025 158.225 L 880.025 158.825 L 878.766 158.825 L 878.766 162.507 Z" style="fill: rgb(255, 255, 255); stroke-width: 1;"/><path id="path-33" data-name="Path 2937" class="cls-2" d="M 882.833 162.507 L 881.591 158.933 L 881.568 158.933 C 881.601 159.467 881.618 159.965 881.618 160.427 L 881.618 162.51 L 880.982 162.51 L 880.982 158.224 L 881.969 158.224 L 883.159 161.631 L 883.176 161.631 L 884.401 158.224 L 885.391 158.224 L 885.391 162.507 L 884.716 162.507 L 884.716 160.389 C 884.716 160.176 884.722 159.899 884.732 159.557 C 884.742 159.215 884.752 159.008 884.76 158.936 L 884.737 158.936 L 883.451 162.507 L 882.833 162.507 Z" style="fill: rgb(255, 255, 255); stroke-width: 1;"/></g><defs><bx:export><bx:file format="svg" normalization="{&quot;convertTextsToPaths&quot;:true,&quot;embedExternalFonts&quot;:true}" path="Awais-Swagger-Logo-Full-white.svg"/></bx:export><bx:grid x="-72.699" y="-47.883" width="100" height="100"/></defs></svg>