<?xml version="1.0" encoding="utf-8"?>
<svg xmlns="http://www.w3.org/2000/svg" viewBox="333.8945 338.0038 495.1193 116.1422" width="495.119px" height="116.142px" xmlns:bx="https://boxy-svg.com" preserveAspectRatio="none"><defs/><g id="object-0"><title>Awais Swagger Logo Full Colored</title><path d="M 486.23 404.83 L 480.78 390.79 L 463.04 390.79 L 457.62 404.83 L 452.41 404.83 L 469.73 360.39 L 474.36 360.39 L 491.56 404.83 Z M 479.24 386.22 L 474.06 372.26 Q 473.88 371.71 473.47 370.47 Q 473.06 369.23 472.64 367.9 Q 472.21 366.57 471.94 365.75 Q 471.64 366.99 471.29 368.22 Q 470.94 369.44 470.61 370.49 Q 470.27 371.53 470.03 372.26 L 464.76 386.22 Z M 522.51 404.77 L 516.61 385.46 Q 516.22 384.22 515.87 383.02 Q 515.52 381.83 515.23 380.72 Q 514.94 379.62 514.72 378.66 Q 514.49 377.71 514.34 377.01 L 514.13 377.01 Q 514.01 377.71 513.79 378.66 Q 513.58 379.62 513.29 380.74 Q 513.01 381.86 512.67 383.08 Q 512.34 384.31 511.92 385.55 L 505.74 404.77 L 500.08 404.77 L 490.94 371.59 L 496.14 371.59 L 500.93 389.91 Q 501.41 391.73 501.85 393.5 Q 502.29 395.27 502.61 396.83 Q 502.93 398.39 503.08 399.54 L 503.32 399.54 Q 503.5 398.78 503.73 397.72 Q 503.95 396.66 504.24 395.46 Q 504.53 394.27 504.86 393.07 Q 505.2 391.88 505.53 390.82 L 511.64 371.59 L 517.06 371.59 L 522.97 390.79 Q 523.42 392.24 523.86 393.81 Q 524.3 395.39 524.66 396.86 Q 525.02 398.33 525.18 399.48 L 525.42 399.48 Q 525.54 398.45 525.87 396.93 Q 526.21 395.42 526.64 393.6 Q 527.08 391.79 527.57 389.91 L 532.41 371.59 L 537.53 371.59 L 528.35 404.77 Z M 554.56 371.11 Q 560.49 371.11 563.37 373.77 Q 566.25 376.44 566.25 382.28 L 566.25 404.83 L 562.58 404.83 L 561.61 399.93 L 561.37 399.93 Q 559.98 401.75 558.47 402.97 Q 556.95 404.2 554.97 404.82 Q 552.99 405.44 550.11 405.44 Q 547.08 405.44 544.74 404.38 Q 542.39 403.32 541.04 401.17 Q 539.7 399.02 539.7 395.72 Q 539.7 390.76 543.63 388.09 Q 547.57 385.43 555.62 385.19 L 561.34 384.94 L 561.34 382.92 Q 561.34 378.62 559.5 376.89 Q 557.65 375.17 554.29 375.17 Q 551.69 375.17 549.32 375.92 Q 546.96 376.68 544.84 377.71 L 543.3 373.89 Q 545.54 372.74 548.45 371.93 Q 551.35 371.11 554.56 371.11 Z M 561.28 388.49 L 556.23 388.7 Q 550.02 388.94 547.48 390.73 Q 544.93 392.51 544.93 395.78 Q 544.93 398.63 546.66 399.99 Q 548.39 401.35 551.23 401.35 Q 555.65 401.35 558.47 398.9 Q 561.28 396.45 561.28 391.54 Z M 580.22 371.65 L 580.22 404.83 L 575.2 404.83 L 575.2 371.65 Z M 577.77 359.24 Q 579.01 359.24 579.9 360.04 Q 580.8 360.85 580.8 362.54 Q 580.8 364.21 579.9 365.02 Q 579.01 365.84 577.77 365.84 Q 576.47 365.84 575.6 365.02 Q 574.74 364.21 574.74 362.54 Q 574.74 360.85 575.6 360.04 Q 576.47 359.24 577.77 359.24 Z M 610.91 395.75 Q 610.91 398.93 609.32 401.1 Q 607.73 403.26 604.78 404.35 Q 601.83 405.44 597.74 405.44 Q 594.26 405.44 591.72 404.89 Q 589.17 404.35 587.27 403.35 L 587.27 398.72 Q 589.3 399.72 592.11 400.54 Q 594.93 401.35 597.86 401.35 Q 602.16 401.35 604.1 399.96 Q 606.04 398.57 606.04 396.18 Q 606.04 394.81 605.26 393.77 Q 604.49 392.72 602.68 391.74 Q 600.86 390.76 597.65 389.58 Q 594.47 388.37 592.16 387.17 Q 589.84 385.97 588.58 384.25 Q 587.33 382.52 587.33 379.77 Q 587.33 375.56 590.73 373.3 Q 594.14 371.05 599.68 371.05 Q 602.68 371.05 605.29 371.64 Q 607.91 372.23 610.18 373.23 L 608.49 377.25 Q 606.43 376.38 604.1 375.77 Q 601.77 375.17 599.35 375.17 Q 595.86 375.17 594 376.32 Q 592.14 377.47 592.14 379.46 Q 592.14 381.01 593 382.01 Q 593.87 383.01 595.77 383.88 Q 597.68 384.76 600.8 385.94 Q 603.92 387.09 606.19 388.32 Q 608.46 389.55 609.68 391.29 Q 610.91 393.03 610.91 395.75 Z M 633.06 404.83 L 633.06 360.57 L 638.2 360.57 L 638.2 404.83 Z M 663.29 371.05 Q 664.29 371.05 665.38 371.15 Q 666.47 371.26 667.32 371.44 L 666.68 376.1 Q 665.86 375.89 664.86 375.77 Q 663.86 375.65 662.99 375.65 Q 660.99 375.65 659.22 376.45 Q 657.45 377.25 656.11 378.75 Q 654.78 380.25 654.03 382.36 Q 653.27 384.46 653.27 387.03 L 653.27 404.83 L 648.21 404.83 L 648.21 371.65 L 652.39 371.65 L 652.94 377.77 L 653.15 377.77 Q 654.18 375.92 655.63 374.39 Q 657.08 372.87 659.01 371.96 Q 660.93 371.05 663.29 371.05 Z M 693.61 395.75 Q 693.61 398.93 692.02 401.1 Q 690.44 403.26 687.48 404.35 Q 684.53 405.44 680.45 405.44 Q 676.96 405.44 674.42 404.89 Q 671.88 404.35 669.97 403.35 L 669.97 398.72 Q 672 399.72 674.81 400.54 Q 677.63 401.35 680.57 401.35 Q 684.87 401.35 686.8 399.96 Q 688.74 398.57 688.74 396.18 Q 688.74 394.81 687.97 393.77 Q 687.2 392.72 685.38 391.74 Q 683.56 390.76 680.35 389.58 Q 677.18 388.37 674.86 387.17 Q 672.54 385.97 671.29 384.25 Q 670.03 382.52 670.03 379.77 Q 670.03 375.56 673.44 373.3 Q 676.84 371.05 682.38 371.05 Q 685.38 371.05 688 371.64 Q 690.62 372.23 692.89 373.23 L 691.19 377.25 Q 689.13 376.38 686.8 375.77 Q 684.47 375.17 682.05 375.17 Q 678.57 375.17 676.71 376.32 Q 674.84 377.47 674.84 379.46 Q 674.84 381.01 675.71 382.01 Q 676.57 383.01 678.48 383.88 Q 680.38 384.76 683.5 385.94 Q 686.62 387.09 688.89 388.32 Q 691.16 389.55 692.39 391.29 Q 693.61 393.03 693.61 395.75 Z M 705.32 357.73 L 705.32 371.81 Q 705.32 373.02 705.26 374.24 Q 705.2 375.47 705.04 376.5 L 705.38 376.5 Q 706.41 374.74 708 373.55 Q 709.59 372.35 711.61 371.73 Q 713.64 371.11 715.91 371.11 Q 719.91 371.11 722.59 372.38 Q 725.27 373.65 726.61 376.32 Q 727.96 378.98 727.96 383.22 L 727.96 404.83 L 723 404.83 L 723 383.55 Q 723 379.4 721.1 377.35 Q 719.21 375.29 715.31 375.29 Q 711.61 375.29 709.42 376.69 Q 707.22 378.1 706.27 380.83 Q 705.32 383.55 705.32 387.49 L 705.32 404.83 L 700.29 404.83 L 700.29 357.73 Z M 749.33 371.11 Q 755.26 371.11 758.14 373.77 Q 761.01 376.44 761.01 382.28 L 761.01 404.83 L 757.35 404.83 L 756.38 399.93 L 756.14 399.93 Q 754.75 401.75 753.23 402.97 Q 751.72 404.2 749.74 404.82 Q 747.75 405.44 744.88 405.44 Q 741.85 405.44 739.5 404.38 Q 737.16 403.32 735.81 401.17 Q 734.46 399.02 734.46 395.72 Q 734.46 390.76 738.4 388.09 Q 742.34 385.43 750.39 385.19 L 756.11 384.94 L 756.11 382.92 Q 756.11 378.62 754.26 376.89 Q 752.42 375.17 749.06 375.17 Q 746.45 375.17 744.09 375.92 Q 741.73 376.68 739.61 377.71 L 738.07 373.89 Q 740.31 372.74 743.21 371.93 Q 746.12 371.11 749.33 371.11 Z M 756.05 388.49 L 750.99 388.7 Q 744.79 388.94 742.24 390.73 Q 739.7 392.51 739.7 395.78 Q 739.7 398.63 741.43 399.99 Q 743.15 401.35 746 401.35 Q 750.42 401.35 753.23 398.9 Q 756.05 396.45 756.05 391.54 Z M 781.77 405.44 Q 775.47 405.44 771.8 401.14 Q 768.12 396.84 768.12 388.37 Q 768.12 379.8 771.87 375.42 Q 775.62 371.05 781.86 371.05 Q 784.49 371.05 786.46 371.75 Q 788.43 372.44 789.85 373.61 Q 791.28 374.77 792.24 376.26 L 792.61 376.26 Q 792.49 375.32 792.37 373.68 Q 792.24 372.05 792.24 371.02 L 792.24 357.73 L 797.27 357.73 L 797.27 404.83 L 793.21 404.83 L 792.46 400.11 L 792.24 400.11 Q 791.31 401.59 789.87 402.81 Q 788.43 404.02 786.45 404.73 Q 784.46 405.44 781.77 405.44 Z M 782.56 401.26 Q 787.89 401.26 790.1 398.23 Q 792.31 395.21 792.31 389.24 L 792.31 388.34 Q 792.31 382.01 790.2 378.62 Q 788.1 375.23 782.56 375.23 Q 777.93 375.23 775.62 378.78 Q 773.32 382.34 773.32 388.49 Q 773.32 394.6 775.61 397.93 Q 777.9 401.26 782.56 401.26 Z" style="fill: rgb(23, 54, 71); text-wrap-mode: nowrap;"/><path d="M 466.4 439.61 L 464.86 435.63 L 459.93 435.63 L 458.39 439.61 L 457.12 439.61 L 461.88 427.42 L 463 427.42 L 467.69 439.61 Z M 464.48 434.51 L 462.99 430.48 Q 462.93 430.32 462.82 430 Q 462.71 429.68 462.6 429.33 Q 462.49 428.98 462.41 428.74 Q 462.32 429.07 462.23 429.39 Q 462.13 429.71 462.04 429.99 Q 461.95 430.28 461.88 430.48 L 460.35 434.51 Z M 475.59 437.15 Q 475.59 438 475.16 438.59 Q 474.73 439.17 473.93 439.47 Q 473.14 439.77 472.02 439.77 Q 471.06 439.77 470.35 439.62 Q 469.64 439.46 469.13 439.2 L 469.13 438.05 Q 469.71 438.34 470.47 438.56 Q 471.24 438.77 472.04 438.77 Q 473.29 438.77 473.84 438.36 Q 474.39 437.95 474.39 437.25 Q 474.39 436.83 474.15 436.52 Q 473.92 436.22 473.4 435.95 Q 472.88 435.68 472.03 435.37 Q 471.17 435.06 470.53 434.75 Q 469.89 434.43 469.54 433.97 Q 469.19 433.5 469.19 432.72 Q 469.19 431.59 470.11 430.97 Q 471.02 430.36 472.53 430.36 Q 473.35 430.36 474.06 430.52 Q 474.77 430.68 475.38 430.95 L 474.96 431.94 Q 474.42 431.7 473.77 431.53 Q 473.12 431.37 472.45 431.37 Q 471.45 431.37 470.91 431.71 Q 470.37 432.04 470.37 432.66 Q 470.37 433.12 470.62 433.41 Q 470.88 433.7 471.41 433.94 Q 471.94 434.17 472.77 434.48 Q 473.61 434.78 474.25 435.11 Q 474.88 435.43 475.23 435.91 Q 475.59 436.39 475.59 437.15 Z M 482.62 430.36 Q 484.33 430.36 485.33 431.53 Q 486.33 432.7 486.33 435.03 Q 486.33 436.58 485.86 437.63 Q 485.4 438.68 484.55 439.23 Q 483.71 439.77 482.56 439.77 Q 481.81 439.77 481.25 439.56 Q 480.68 439.36 480.29 439.01 Q 479.89 438.66 479.65 438.24 L 479.56 438.24 Q 479.59 438.6 479.62 439.07 Q 479.65 439.55 479.65 439.93 L 479.65 443.65 L 478.42 443.65 L 478.42 430.53 L 479.43 430.53 L 479.59 432.01 L 479.65 432.01 Q 479.9 431.56 480.29 431.18 Q 480.68 430.81 481.25 430.58 Q 481.83 430.36 482.62 430.36 Z M 482.42 431.4 Q 481.45 431.4 480.84 431.79 Q 480.23 432.18 479.95 432.94 Q 479.67 433.7 479.65 434.83 L 479.65 435.07 Q 479.65 436.27 479.93 437.09 Q 480.2 437.9 480.81 438.32 Q 481.41 438.74 482.4 438.74 Q 483.28 438.74 483.87 438.28 Q 484.47 437.82 484.77 436.98 Q 485.07 436.14 485.07 435.02 Q 485.07 433.32 484.41 432.36 Q 483.75 431.4 482.42 431.4 Z M 490.56 430.53 L 490.56 439.61 L 489.33 439.61 L 489.33 430.53 Z M 489.96 427.15 Q 490.29 427.15 490.51 427.36 Q 490.72 427.57 490.72 427.98 Q 490.72 428.4 490.51 428.62 Q 490.29 428.83 489.96 428.83 Q 489.62 428.83 489.41 428.62 Q 489.2 428.4 489.2 427.98 Q 489.2 427.57 489.41 427.36 Q 489.62 427.15 489.96 427.15 Z M 498.07 430.37 Q 498.37 430.37 498.67 430.4 Q 498.98 430.43 499.22 430.49 L 499.06 431.62 Q 498.82 431.55 498.54 431.52 Q 498.26 431.49 498 431.49 Q 497.42 431.49 496.94 431.72 Q 496.45 431.94 496.08 432.36 Q 495.72 432.78 495.52 433.38 Q 495.32 433.97 495.32 434.7 L 495.32 439.61 L 494.1 439.61 L 494.1 430.53 L 495.12 430.53 L 495.25 432.21 L 495.3 432.21 Q 495.57 431.7 495.96 431.28 Q 496.35 430.87 496.88 430.62 Q 497.41 430.37 498.07 430.37 Z M 502.77 430.53 L 502.77 439.61 L 501.54 439.61 L 501.54 430.53 Z M 502.17 427.15 Q 502.5 427.15 502.72 427.36 Q 502.94 427.57 502.94 427.98 Q 502.94 428.4 502.72 428.62 Q 502.5 428.83 502.17 428.83 Q 501.83 428.83 501.62 428.62 Q 501.41 428.4 501.41 427.98 Q 501.41 427.57 501.62 427.36 Q 501.83 427.15 502.17 427.15 Z M 510.52 430.36 Q 512.1 430.36 512.93 431.16 Q 513.75 431.95 513.75 433.69 L 513.75 439.61 L 512.55 439.61 L 512.55 433.76 Q 512.55 432.57 512 431.99 Q 511.45 431.4 510.36 431.4 Q 508.85 431.4 508.19 432.26 Q 507.53 433.11 507.53 434.78 L 507.53 439.61 L 506.3 439.61 L 506.3 430.53 L 507.29 430.53 L 507.47 431.94 L 507.54 431.94 Q 507.82 431.45 508.26 431.1 Q 508.7 430.75 509.27 430.55 Q 509.84 430.36 510.52 430.36 Z M 519.7 443.69 Q 517.94 443.69 516.97 443.03 Q 516.01 442.36 516.01 441.17 Q 516.01 440.29 516.56 439.67 Q 517.11 439.05 518.09 438.87 Q 517.72 438.7 517.47 438.37 Q 517.21 438.05 517.21 437.61 Q 517.21 437.13 517.5 436.75 Q 517.78 436.36 518.36 436.01 Q 517.62 435.72 517.18 435.04 Q 516.73 434.35 516.73 433.41 Q 516.73 432.46 517.13 431.77 Q 517.54 431.08 518.29 430.72 Q 519.05 430.35 520.11 430.35 Q 520.37 430.35 520.61 430.37 Q 520.86 430.39 521.08 430.43 Q 521.3 430.47 521.46 430.52 L 524.53 430.52 L 524.53 431.32 L 522.79 431.5 Q 523.07 431.86 523.25 432.33 Q 523.42 432.81 523.42 433.36 Q 523.42 434.72 522.52 435.52 Q 521.62 436.32 520.04 436.32 Q 519.65 436.32 519.25 436.24 Q 518.82 436.49 518.59 436.78 Q 518.36 437.06 518.36 437.44 Q 518.36 437.71 518.52 437.88 Q 518.68 438.04 518.99 438.12 Q 519.31 438.19 519.75 438.19 L 521.34 438.19 Q 522.82 438.19 523.61 438.81 Q 524.4 439.42 524.4 440.61 Q 524.4 442.1 523.19 442.89 Q 521.98 443.69 519.7 443.69 Z M 519.75 442.72 Q 520.9 442.72 521.65 442.48 Q 522.41 442.25 522.79 441.8 Q 523.17 441.35 523.17 440.72 Q 523.17 440.15 522.9 439.86 Q 522.64 439.56 522.15 439.46 Q 521.65 439.35 520.95 439.35 L 519.39 439.35 Q 518.75 439.35 518.26 439.54 Q 517.77 439.74 517.5 440.12 Q 517.24 440.51 517.24 441.11 Q 517.24 441.9 517.89 442.31 Q 518.54 442.72 519.75 442.72 Z M 520.09 435.41 Q 521.11 435.41 521.63 434.89 Q 522.16 434.37 522.16 433.38 Q 522.16 432.33 521.63 431.8 Q 521.09 431.27 520.07 431.27 Q 519.08 431.27 518.54 431.82 Q 518 432.38 518 433.41 Q 518 434.37 518.54 434.89 Q 519.07 435.41 520.09 435.41 Z" style="fill: rgb(23, 54, 71); text-wrap-mode: nowrap;"/><path d="M 541.51 439.87 Q 540.71 439.87 539.69 439.78 Q 538.68 439.7 537.68 439.56 Q 536.68 439.42 535.93 439.32 L 536.13 437.52 Q 536.88 437.6 537.84 437.7 Q 538.81 437.8 539.76 437.87 Q 540.71 437.95 541.38 437.95 Q 542.56 437.95 543.33 437.6 Q 544.11 437.25 544.49 436.53 Q 544.88 435.82 544.88 434.7 Q 544.88 433.8 544.53 433.25 Q 544.18 432.7 543.37 432.38 Q 542.56 432.07 541.18 431.8 Q 539.81 431.52 538.79 431.17 Q 537.78 430.82 537.11 430.27 Q 536.43 429.72 536.11 428.9 Q 535.78 428.07 535.78 426.85 Q 535.78 425.12 536.48 424.08 Q 537.18 423.05 538.46 422.57 Q 539.73 422.1 541.43 422.1 Q 542.18 422.1 543.16 422.18 Q 544.13 422.27 545.08 422.38 Q 546.03 422.5 546.71 422.62 L 546.56 424.45 Q 545.81 424.35 544.86 424.26 Q 543.91 424.17 543.02 424.1 Q 542.13 424.02 541.58 424.02 Q 540.43 424.02 539.63 424.31 Q 538.83 424.6 538.42 425.18 Q 538.01 425.77 538.01 426.67 Q 538.01 427.75 538.41 428.3 Q 538.81 428.85 539.71 429.16 Q 540.61 429.47 542.06 429.8 Q 543.38 430.12 544.33 430.47 Q 545.28 430.82 545.91 431.33 Q 546.53 431.85 546.82 432.62 Q 547.11 433.4 547.11 434.52 Q 547.11 436.45 546.42 437.62 Q 545.73 438.8 544.48 439.33 Q 543.23 439.87 541.51 439.87 Z M 559.67 439.9 Q 556.97 439.9 555.47 438.91 Q 553.97 437.92 553.37 435.96 Q 552.77 434 552.77 431.1 Q 552.77 428.22 553.38 426.22 Q 554 424.22 555.5 423.17 Q 557 422.12 559.67 422.12 Q 562.37 422.12 563.87 423.16 Q 565.37 424.2 565.98 426.21 Q 566.6 428.22 566.6 431.1 Q 566.6 434.07 566 436.02 Q 565.4 437.97 563.88 438.93 Q 562.37 439.9 559.67 439.9 Z M 559.67 437.97 Q 561.6 437.97 562.6 437.23 Q 563.6 436.5 563.96 434.97 Q 564.32 433.45 564.32 431.1 Q 564.32 428.85 563.95 427.27 Q 563.57 425.7 562.57 424.87 Q 561.57 424.05 559.67 424.05 Q 557.77 424.05 556.78 424.87 Q 555.8 425.7 555.42 427.26 Q 555.05 428.82 555.05 431.1 Q 555.05 433.37 555.41 434.9 Q 555.77 436.42 556.76 437.2 Q 557.75 437.97 559.67 437.97 Z M 573.16 439.65 L 573.16 422.4 L 583.63 422.4 L 583.63 424.32 L 575.36 424.32 L 575.36 430.77 L 582.31 430.77 L 582.31 432.7 L 575.36 432.7 L 575.36 439.65 Z M 592.98 439.65 L 592.98 424.35 L 587.8 424.35 L 587.8 422.4 L 600.3 422.4 L 600.3 424.35 L 595.18 424.35 L 595.18 439.65 Z M 607.94 439.65 L 604.54 422.4 L 606.81 422.4 L 609.59 437.67 L 610.29 437.67 L 613.66 422.52 L 616.21 422.52 L 619.59 437.67 L 620.29 437.67 L 623.06 422.4 L 625.34 422.4 L 621.91 439.65 L 618.06 439.65 L 614.76 424.37 L 615.09 424.37 L 611.79 439.65 Z M 629.06 439.65 L 633.71 422.4 L 638.29 422.4 L 642.94 439.65 L 640.74 439.65 L 639.54 435.4 L 632.44 435.4 L 631.24 439.65 Z M 632.86 433.5 L 639.11 433.5 L 636.61 424.25 L 635.36 424.25 Z M 648.7 439.65 L 648.7 422.4 L 655.15 422.4 Q 657.02 422.4 658.27 422.95 Q 659.52 423.5 660.16 424.67 Q 660.8 425.85 660.8 427.7 Q 660.8 429.6 660.05 430.88 Q 659.3 432.17 657.72 432.72 L 660.92 439.65 L 658.52 439.65 L 655.57 433.2 L 650.9 433.2 L 650.9 439.65 Z M 650.9 431.3 L 655.2 431.3 Q 656.42 431.3 657.16 430.83 Q 657.9 430.37 658.21 429.56 Q 658.52 428.75 658.52 427.72 Q 658.52 426 657.7 425.15 Q 656.87 424.3 655.15 424.3 L 650.9 424.3 Z M 667.3 439.65 L 667.3 422.4 L 677.97 422.4 L 677.97 424.32 L 669.5 424.32 L 669.5 429.95 L 676.47 429.95 L 676.47 431.85 L 669.5 431.85 L 669.5 437.72 L 677.97 437.72 L 677.97 439.65 Z M 693 439.65 L 693 422.4 L 703.68 422.4 L 703.68 424.32 L 695.2 424.32 L 695.2 429.95 L 702.18 429.95 L 702.18 431.85 L 695.2 431.85 L 695.2 437.72 L 703.68 437.72 L 703.68 439.65 Z M 710.02 439.65 L 710.02 422.4 L 713.85 422.4 L 720.22 437.42 L 720.7 437.42 L 720.7 422.4 L 722.9 422.4 L 722.9 439.65 L 719.15 439.65 L 712.7 424.6 L 712.22 424.6 L 712.22 439.65 Z M 736.26 439.9 Q 734.26 439.9 732.95 439.31 Q 731.63 438.72 730.87 437.6 Q 730.11 436.47 729.8 434.82 Q 729.48 433.17 729.48 431.05 Q 729.48 428.87 729.8 427.21 Q 730.11 425.55 730.88 424.41 Q 731.66 423.27 732.96 422.7 Q 734.26 422.12 736.21 422.12 Q 737.21 422.12 738.27 422.22 Q 739.33 422.32 740.31 422.48 Q 741.28 422.65 741.93 422.8 L 741.86 424.6 Q 741.21 424.47 740.25 424.36 Q 739.28 424.25 738.3 424.17 Q 737.31 424.1 736.48 424.1 Q 735.03 424.1 734.11 424.51 Q 733.18 424.92 732.67 425.78 Q 732.16 426.65 731.96 427.95 Q 731.76 429.25 731.76 431.05 Q 731.76 433.4 732.12 434.93 Q 732.48 436.47 733.5 437.22 Q 734.51 437.97 736.43 437.97 Q 736.98 437.97 737.6 437.92 Q 738.21 437.87 738.81 437.8 Q 739.41 437.72 739.78 437.65 L 739.78 432.65 L 737.08 432.65 L 737.08 430.75 L 741.93 430.75 L 741.93 439.3 Q 741.51 439.37 740.8 439.47 Q 740.08 439.57 739.27 439.67 Q 738.46 439.77 737.67 439.83 Q 736.88 439.9 736.26 439.9 Z M 748.76 439.65 L 748.76 422.4 L 750.96 422.4 L 750.96 439.65 Z M 758.21 439.65 L 758.21 422.4 L 762.04 422.4 L 768.41 437.42 L 768.89 437.42 L 768.89 422.4 L 771.09 422.4 L 771.09 439.65 L 767.34 439.65 L 760.89 424.6 L 760.41 424.6 L 760.41 439.65 Z M 778.35 439.65 L 778.35 422.4 L 789.03 422.4 L 789.03 424.32 L 780.55 424.32 L 780.55 429.95 L 787.53 429.95 L 787.53 431.85 L 780.55 431.85 L 780.55 437.72 L 789.03 437.72 L 789.03 439.65 Z M 795.37 439.65 L 795.37 422.4 L 806.04 422.4 L 806.04 424.32 L 797.57 424.32 L 797.57 429.95 L 804.54 429.95 L 804.54 431.85 L 797.57 431.85 L 797.57 437.72 L 806.04 437.72 L 806.04 439.65 Z M 812.39 439.65 L 812.39 422.4 L 818.84 422.4 Q 820.71 422.4 821.96 422.95 Q 823.21 423.5 823.85 424.67 Q 824.49 425.85 824.49 427.7 Q 824.49 429.6 823.74 430.88 Q 822.99 432.17 821.41 432.72 L 824.61 439.65 L 822.21 439.65 L 819.26 433.2 L 814.59 433.2 L 814.59 439.65 Z M 814.59 431.3 L 818.89 431.3 Q 820.11 431.3 820.85 430.83 Q 821.59 430.37 821.9 429.56 Q 822.21 428.75 822.21 427.72 Q 822.21 426 821.39 425.15 Q 820.56 424.3 818.84 424.3 L 814.59 424.3 Z" style="fill: rgb(23, 54, 71); text-wrap-mode: nowrap;"/><path id="path-3" data-name="Path 2936" class="cls-2" d="M 814.087 404.463 L 813.387 404.463 L 813.387 400.781 L 812.127 400.781 L 812.127 400.181 L 815.346 400.181 L 815.346 400.781 L 814.087 400.781 L 814.087 404.463 Z" style="stroke-width: 1; fill: rgb(23, 54, 71);"/><path id="path-4" data-name="Path 2937" class="cls-2" d="M 818.154 404.463 L 816.912 400.889 L 816.889 400.889 C 816.922 401.423 816.939 401.921 816.939 402.383 L 816.939 404.466 L 816.303 404.466 L 816.303 400.18 L 817.29 400.18 L 818.48 403.587 L 818.497 403.587 L 819.722 400.18 L 820.712 400.18 L 820.712 404.463 L 820.037 404.463 L 820.037 402.345 C 820.037 402.132 820.043 401.855 820.053 401.513 C 820.063 401.171 820.073 400.964 820.081 400.892 L 820.058 400.892 L 818.772 404.463 L 818.154 404.463 Z" style="stroke-width: 1; fill: rgb(23, 54, 71);"/><g transform="matrix(1, 0, 0, 1, 144.466537, -159.082581)"><g transform="matrix(1, 0, 0, 1, 189.126999, 497.086395)"><g><g><g><g><path class="st5" d="M50.328,97.669c-26.27,0-47.643-21.371-47.643-47.642S24.058,2.385,50.328,2.385 s47.643,21.373,47.643,47.643S76.598,97.669,50.328,97.669z" style="fill: rgb(133, 234, 45);"/></g><g><g><path class="st2" d="M50.328,4.769c24.996,0,45.258,20.262,45.258,45.258c0,24.995-20.262,45.258-45.258,45.258 c-24.995,0-45.258-20.263-45.258-45.258C5.07,25.032,25.333,4.769,50.328,4.769 M50.328,0 C22.743,0,0.301,22.442,0.301,50.027s22.442,50.027,50.027,50.027c27.585,0,50.028-22.442,50.028-50.027S77.913,0,50.328,0 L50.328,0z" style="fill: rgb(23, 54, 71);"/></g></g></g></g></g><path class="st2" d="M31.802,33.854c-0.154,1.712,0.057,3.482-0.057,5.213c-0.135,1.732-0.347,3.444-0.693,5.156 c-0.481,2.443-2.001,4.29-4.097,5.829c4.079,2.655,4.54,6.771,4.809,10.946c0.135,2.251,0.077,4.521,0.308,6.752 c0.173,1.731,0.846,2.174,2.636,2.231c0.731,0.019,1.48,0,2.328,0v5.348c-5.29,0.904-9.657-0.596-10.735-5.078 c-0.347-1.635-0.578-3.309-0.654-5.002c-0.116-1.789,0.076-3.578-0.058-5.367c-0.385-4.906-1.02-6.56-5.713-6.791v-6.098 c0.346-0.077,0.673-0.135,1.019-0.173c2.578-0.135,3.674-0.924,4.232-3.463c0.27-1.423,0.424-2.866,0.481-4.328 c0.193-2.789,0.116-5.636,0.596-8.406c0.673-3.982,3.136-5.906,7.234-6.137c1.154-0.058,2.328,0,3.655,0v5.464 c-0.558,0.039-1.039,0.115-1.539,0.115C32.226,29.949,32.052,31.084,31.802,33.854z M38.208,46.512h-0.077 c-1.924-0.096-3.578,1.404-3.675,3.328c-0.096,1.943,1.404,3.598,3.328,3.693h0.231c1.905,0.116,3.539-1.347,3.655-3.251V50.09 C41.709,48.147,40.151,46.551,38.208,46.512z M50.27,46.512c-1.866-0.058-3.425,1.404-3.482,3.251c0,0.116,0,0.212,0.02,0.327 c0,2.097,1.423,3.444,3.578,3.444c2.116,0,3.444-1.385,3.444-3.559C53.81,47.878,52.405,46.493,50.27,46.512z M62.621,46.512 c-1.962-0.039-3.598,1.52-3.655,3.482c0,1.962,1.577,3.539,3.539,3.539h0.039c1.77,0.308,3.559-1.404,3.675-3.462 C66.314,48.166,64.583,46.512,62.621,46.512z M79.569,46.8c-2.232-0.096-3.348-0.846-3.905-2.963 c-0.347-1.346-0.558-2.751-0.635-4.136c-0.154-2.578-0.135-5.175-0.308-7.753c-0.404-6.117-4.828-8.252-11.254-7.195v5.31 c1.019,0,1.808,0,2.597,0.019c1.366,0.019,2.405,0.539,2.539,2.059c0.135,1.385,0.135,2.789,0.27,4.194 c0.27,2.79,0.423,5.617,0.904,8.368c0.424,2.27,1.982,3.963,3.924,5.348c-3.404,2.289-4.405,5.559-4.578,9.234 c-0.096,2.52-0.154,5.059-0.288,7.599c-0.116,2.308-0.923,3.058-3.251,3.116c-0.654,0.019-1.289,0.077-2.02,0.116v5.444 c1.366,0,2.616,0.077,3.866,0c3.886-0.231,6.233-2.116,7.003-5.887c0.327-2.078,0.519-4.174,0.577-6.271 c0.134-1.924,0.116-3.867,0.308-5.771c0.288-2.982,1.654-4.213,4.636-4.405c0.289-0.039,0.558-0.096,0.828-0.192v-6.099 C80.281,46.877,79.934,46.82,79.569,46.8z" style="fill: rgb(23, 54, 71);"/></g></g></g></svg>