<?xml version="1.0" encoding="utf-8"?>
<svg xmlns="http://www.w3.org/2000/svg" viewBox="328.7381 553.4851 100.055 100.054" width="100.055px" height="100.054px" xmlns:bx="https://boxy-svg.com"><defs/><g transform="matrix(0.9999999999999999, 0, 0, 0.9999999999999999, -198.58427429199213, 0.6647520661354065)" id="object-0"><g transform="matrix(1, 0, 0, 1, 527.021301, 552.820313)"><g><g><path class="st5" d="M50.328,97.669c-26.27,0-47.643-21.371-47.643-47.642S24.058,2.385,50.328,2.385 s47.643,21.373,47.643,47.643S76.598,97.669,50.328,97.669z" style="fill: rgb(133, 234, 45);"/></g><g><g><path class="st2" d="M50.328,4.769c24.996,0,45.258,20.262,45.258,45.258c0,24.995-20.262,45.258-45.258,45.258 c-24.995,0-45.258-20.263-45.258-45.258C5.07,25.032,25.333,4.769,50.328,4.769 M50.328,0 C22.743,0,0.301,22.442,0.301,50.027s22.442,50.027,50.027,50.027c27.585,0,50.028-22.442,50.028-50.027S77.913,0,50.328,0 L50.328,0z" style="fill: rgb(23, 54, 71);"/></g></g></g></g><g transform="matrix(1, 0, 0, 1, 195.757965, 91.485023)"><g transform="matrix(1, 0, 0, 1, -61.635864, -15.055942)"><g><g><path d="M 346.9 524.5 L 352.97 507.08 L 357.49 507.08 L 363.56 524.5 L 359.71 524.5 L 359.21 522.51 L 355.6 511.16 L 355.35 509.62 L 355.11 509.62 L 354.86 511.16 L 351.25 522.51 L 350.75 524.5 Z M 350.13 520.52 L 350.13 517.53 L 360.33 517.53 L 360.33 520.52 Z M 373.94 524.5 L 373.94 507.08 L 377.37 507.08 L 377.37 524.5 Z M 371.75 524.5 L 371.75 521.31 L 373.24 521.56 L 378.07 521.56 L 379.56 521.31 L 379.56 524.5 Z M 371.75 510.26 L 371.75 507.08 L 379.56 507.08 L 379.56 510.26 L 378.07 510.02 L 373.24 510.02 Z" transform="matrix(1, 0, 0, 1.004847, 78.65979, 8.634846)" style="fill: rgb(23, 54, 71); line-height: 39.8071px; text-transform: uppercase; text-wrap-mode: nowrap;"/></g><path d="M 442.8 535.42 L 442.8 531.12 L 447.11 531.12 L 447.11 535.42 Z" style="fill: rgb(23, 54, 71); text-wrap-mode: nowrap;"/></g><path class="st2" d="M 424.626 509.993 C 424.472 511.705 424.683 513.475 424.569 515.206 C 424.434 516.938 424.222 518.65 423.876 520.362 C 423.395 522.805 421.875 524.652 419.779 526.191 C 423.858 528.846 424.319 532.962 424.588 537.137 C 424.723 539.388 424.665 541.658 424.896 543.889 C 425.069 545.62 425.742 546.063 427.532 546.12 C 428.263 546.139 429.012 546.12 429.86 546.12 L 429.86 551.468 C 424.57 552.372 420.203 550.872 419.125 546.39 C 418.778 544.755 418.547 543.081 418.471 541.388 C 418.355 539.599 418.547 537.81 418.413 536.021 C 418.028 531.115 417.393 529.461 412.7 529.23 L 412.7 523.132 C 413.046 523.055 413.373 522.997 413.719 522.959 C 416.297 522.824 417.393 522.035 417.951 519.496 C 418.221 518.073 418.375 516.63 418.432 515.168 C 418.625 512.379 418.548 509.532 419.028 506.762 C 419.701 502.78 422.164 500.856 426.262 500.625 C 427.416 500.567 428.59 500.625 429.917 500.625 L 429.917 506.089 C 429.359 506.128 428.878 506.204 428.378 506.204 C 425.05 506.088 424.876 507.223 424.626 509.993 Z" style="fill: rgb(23, 54, 71); stroke-width: 1;"/><path class="st2" d="M 472.393 522.939 C 470.161 522.843 469.045 522.093 468.488 519.976 C 468.141 518.63 467.93 517.225 467.853 515.84 C 467.699 513.262 467.718 510.665 467.545 508.087 C 467.141 501.97 462.717 499.835 456.291 500.892 L 456.291 506.202 C 457.31 506.202 458.099 506.202 458.888 506.221 C 460.254 506.24 461.293 506.76 461.427 508.28 C 461.562 509.665 461.562 511.069 461.697 512.474 C 461.967 515.264 462.12 518.091 462.601 520.842 C 463.025 523.112 464.583 524.805 466.525 526.19 C 463.121 528.479 462.12 531.749 461.947 535.424 C 461.851 537.944 461.793 540.483 461.659 543.023 C 461.543 545.331 460.736 546.081 458.408 546.139 C 457.754 546.158 457.119 546.216 456.388 546.255 L 456.388 551.699 C 457.754 551.699 459.004 551.776 460.254 551.699 C 464.14 551.468 466.487 549.583 467.257 545.812 C 467.584 543.734 467.776 541.638 467.834 539.541 C 467.968 537.617 467.95 535.674 468.142 533.77 C 468.43 530.788 469.796 529.557 472.778 529.365 C 473.067 529.326 473.336 529.269 473.606 529.173 L 473.606 523.074 C 473.105 523.016 472.758 522.959 472.393 522.939 Z" style="fill: rgb(23, 54, 71); stroke-width: 1;"/></g></g></g></svg>